<svg id="Layer_1" data-name="Layer 1" xmlns="http://www.w3.org/2000/svg" viewBox="0 0 144 72"><defs><style>.cls-1{fill:#4d4d4d;}.cls-2{fill:#36b24a;}</style></defs><path id="Path_12" data-name="Path 12" class="cls-1" d="M53.05,55.33V16.21A3.11,3.11,0,0,1,55.71,13h29s5,1.07,6.26,2.45,1.88,3.66,1.88,6.72v5.51a7.14,7.14,0,0,1-1.73,5.19H91a3.8,3.8,0,0,0,0,4.73c.15.16.31.31.31.46,1.26,1.68,2.17,6,2.17,6v5.65A8.45,8.45,0,0,1,90.8,56.4c-1.88,1.53-4.54,2.14-8.15,2.14H55.56a2.86,2.86,0,0,1-2.51-3.15ZM80.47,20.69H63.55A2.87,2.87,0,0,0,61,23.85v4.67a2.86,2.86,0,0,0,2.44,3.19h17A5.12,5.12,0,0,0,83.6,31a3.08,3.08,0,0,0,.78-2.59V24.07a3.32,3.32,0,0,0-.78-2.43,4.45,4.45,0,0,0-3.13-1Zm.47,18.64H64a2.87,2.87,0,0,0-2.51,3.15v5.25A3,3,0,0,0,64,50.94H80.94A4.68,4.68,0,0,0,84.2,50c.61-.61.78-1.69.78-3.21V43.46a4.89,4.89,0,0,0-.78-3.06,4.07,4.07,0,0,0-3.26-1.12Z"/><path id="Path_13" data-name="Path 13" class="cls-1" d="M97.53,57.31,122,25.23c.94-1.23-8.77,9.32-9.71,8.08L97.38,14.84a1,1,0,0,1-.07-1.37l.07-.08.11-.08c0-.16.32-.31.48-.31h9.12a4.74,4.74,0,0,1,.62.46l8.93,11.77A3.29,3.29,0,0,0,121,26c.31-.15.46-.46.78-.76l8.46-11.62c.15-.15.62.15.62.15h7.53a.88.88,0,0,1,.84.91,1.13,1.13,0,0,1-.06.32c0,.15-.16.31-.32.46l-13,16.81a3.15,3.15,0,0,0,.15,3.81l16.76,20.48a1,1,0,0,1,0,1.37l-.08.09-.09.07c-.16.15-.31.31-.47.31h-9.24a1.26,1.26,0,0,1-.63-.16l-11-13.14a2.56,2.56,0,0,0-3.53-.51l-.06.06a1.08,1.08,0,0,0-.63.61L106.81,58.08a10,10,0,0,0-.63.92h-8a.87.87,0,0,1-.84-.91.81.81,0,0,1,.06-.31A.6.6,0,0,1,97.53,57.31Z"/><path class="cls-2" d="M7.83,13.26h5a2.86,2.86,0,0,1,2.75,1.84c2.17,4.35,4.4,8.65,6.59,13a3.69,3.69,0,0,0,1.8,2c1.4.52,2.54,0,3.39-1.67,2-3.95,4.12-7.85,6-11.9,1.09-2.36,2.41-3.43,4.63-3.28,2.95.21,5.92.05,8.88.06a3.75,3.75,0,0,1,.71.15,5,5,0,0,1-.31.82Q41.06,24.64,34.83,35.06C33.69,37,32.54,38.93,31.53,41A6.92,6.92,0,0,0,31,43.76c-.06,3.83,0,7.65,0,11.48,0,2.33-.76,3.28-2.64,3.29H21.21c-1.79,0-2.63-1.08-2.63-3.35,0-3.83-.07-7.66,0-11.48A8.87,8.87,0,0,0,17,38.77c-4.17-7-8.39-14-12.58-21C3.71,16.56,3,15.31,2.27,14.07A5.11,5.11,0,0,1,2,13.35a4.48,4.48,0,0,1,.64-.09Z"/></svg>